<svg width="81" height="85" viewBox="0 0 81 85" fill="none" xmlns="http://www.w3.org/2000/svg">
<mask id="mask0" mask-type="alpha" maskUnits="userSpaceOnUse" x="0" y="0" width="81" height="85">
<ellipse cx="40.5" cy="41" rx="10.5" ry="10" fill="black"/>
<path d="M80.5 41.5C80.5 64.1552 62.58 82.5 40.5 82.5C18.42 82.5 0.5 64.1552 0.5 41.5C0.5 18.8448 18.42 0.5 40.5 0.5C62.58 0.5 80.5 18.8448 80.5 41.5Z" stroke="black"/>
<path d="M71.5 41C71.5 57.8372 57.6284 71.5 40.5 71.5C23.3716 71.5 9.5 57.8372 9.5 41C9.5 24.1628 23.3716 10.5 40.5 10.5C57.6284 10.5 71.5 24.1628 71.5 41Z" stroke="black"/>
<circle cx="41" cy="41" r="20.5" stroke="black"/>
<circle cx="40.5" cy="10.5" r="5.5" fill="black"/>
<circle cx="61.5" cy="41.5" r="5.5" fill="black"/>
<circle cx="41.5" cy="82.5" r="2.5" fill="black"/>
<circle cx="9.5" cy="41.5" r="2.5" fill="black"/>
</mask>
<g mask="url(#mask0)">
<rect x="10.8441" y="95.6665" width="89.8026" height="89.8026" transform="rotate(-108.175 10.8441 95.6665)" fill="url(#paint0_linear)"/>
</g>
<defs>
<linearGradient id="paint0_linear" x1="55.7454" y1="95.6665" x2="55.7454" y2="185.469" gradientUnits="userSpaceOnUse">
<stop/>
<stop offset="0.65625" stop-color="#BFAA30"/>
<stop offset="1" stop-color="#FDD000"/>
</linearGradient>
</defs>
</svg>
